<svg width="44" height="44" viewBox="0 0 44 44" fill="none" xmlns="http://www.w3.org/2000/svg"><path d="M2.42711 35.6695C2.42618 35.65 2.42557 35.6306 2.42528 35.6111C2.40078 33.8034 4.46646 31.8081 4.46649 30L3.81858 19.5V14.28C3.81802 12.7731 3.31716 12.1307 3.6459 10.6497C3.67091 10.5405 3.69781 10.4317 3.7266 10.3234C3.75538 10.2151 3.78605 10.1073 3.81858 10C3.85112 9.89275 4.39302 10.5075 4.42926 10.4014C4.46551 10.2954 3.5176 9.28856 3.55751 9.18381C3.59742 9.07909 3.63914 8.97509 3.68266 8.87181C3.72619 8.7685 3.77149 8.66599 3.81858 8.56429C3.86568 8.46259 3.91452 8.36173 3.96511 8.2617C4.01571 8.16171 4.06803 8.0626 4.12207 7.9644C4.17611 7.86622 4.23184 7.76899 4.28926 7.67272C4.34668 7.57648 4.40576 7.48126 4.46649 7.38707C4.52723 7.29285 4.58958 7.19973 4.65355 7.10772C4.71752 7.01567 4.78307 6.92476 4.8502 6.835C4.91733 6.74527 4.986 6.65672 5.05622 6.56933C5.12642 6.48198 5.19812 6.39585 5.27134 6.31096C5.34453 6.2261 5.41918 6.14253 5.4953 6.06025C5.57139 5.97797 5.6489 5.89704 5.72784 5.81746C5.77477 5.77073 5.82218 5.7245 5.87005 5.67877C5.91792 5.63304 5.96626 5.58781 6.01507 5.54308C6.06388 5.49831 6.11316 5.45408 6.16291 5.41037C6.21263 5.36664 6.26279 5.32343 6.31339 5.28075C6.36402 5.23807 6.41508 5.1959 6.46656 5.15425C6.51804 5.11262 6.56996 5.07152 6.62232 5.03096C6.67465 4.9904 6.72739 4.95038 6.78054 4.9109C6.83369 4.87143 6.88725 4.8325 6.94123 4.79413C6.9952 4.75576 7.04956 4.71795 7.10429 4.6807C7.15903 4.64346 7.21415 4.60678 7.26964 4.57066C7.32514 4.53455 7.38101 4.49902 7.43724 4.46406C7.4935 4.4291 7.5501 4.39473 7.60704 4.36094C7.66397 4.32715 7.72126 4.29395 7.7789 4.26134C7.83651 4.22873 7.89447 4.19672 7.95279 4.16531C8.01107 4.1339 8.06967 4.10309 8.12857 4.07289C8.1875 4.04268 8.24674 4.01309 8.30628 3.98411C8.36583 3.95513 8.42566 3.92677 8.48576 3.89902C8.54589 3.87127 8.60629 3.84415 8.66695 3.81765C8.72764 3.79115 8.7886 3.76528 8.84982 3.74004C8.91103 3.7148 8.9725 3.69019 9.03422 3.66622C9.09594 3.64224 9.15791 3.61891 9.22012 3.59621C9.28231 3.57352 9.34473 3.55147 9.40738 3.53006C9.47007 3.50866 9.53295 3.4879 9.59601 3.46779C9.65911 3.44768 9.72239 3.42822 9.78587 3.40942C9.84938 3.39062 9.91306 3.37247 9.97692 3.35498C10.0408 3.33749 10.1048 3.32066 10.169 3.3045C10.2332 3.28833 10.2976 3.27282 10.3621 3.25798C10.4267 3.24314 10.4914 3.22897 10.5562 3.21547C10.621 3.20196 10.686 3.18913 10.7511 3.17696C10.8161 3.1648 10.8813 3.15331 10.9466 3.14249C11.012 3.13167 11.0774 3.12153 11.143 3.11206C11.2085 3.10259 11.2741 3.0938 11.3398 3.08568C12.0594 2.99958 12.777 3.01298 13.5 3.01249L27 4L30.5 4.5C31.967 4.49958 31.0573 4.66726 32.5 5C34.2014 5.39242 35.2698 4.25998 36.5 5.5C38.1953 7.20865 36.3338 9.1163 36.5 11.5C36.5268 11.885 38.5003 12.1135 38.5 12.5L38 13.5L38.5 17.5L40 26.5L40.7597 33C40.7599 33.5491 40.0931 34.4596 40 35C39.7447 36.4816 41.3728 37.0927 40.4971 38.3192C40.3374 38.5428 40.9523 40.2064 40.7597 40.4027C40.6693 40.3562 40.5783 40.3131 40.4971 40.2514C40.0664 40.0759 39.6518 39.8456 39.2354 39.6386L36.5952 38.3192L33.1016 36.5943L32.0479 36.0669C31.8488 35.9671 31.6376 35.874 31.4483 35.7573C31.1405 36.0929 30.7712 36.3873 30.4294 36.6891L28.7471 38.1772L23.6628 42.6936C23.5089 42.8101 23.3758 42.9517 23.2421 43.09C22.7696 40.8507 22.4151 38.5849 21.952 36.3433C21.3002 36.6922 20.626 37.009 19.9645 37.3399L15.9831 39.3302C13.5167 40.5938 11.0405 41.8379 8.55452 43.0626C8.67165 42.7562 8.8675 42.4544 9.02409 42.1656L9.93001 40.4883L13.6069 33.6432C13.2493 33.7938 12.8355 33.8726 12.4605 33.9773L10.2124 34.6074L3.8733 36.3855C2.88619 36.6639 1.87763 36.9072 0.901798 37.2207C0.997261 37.132 2.41147 35.7393 2.41147 35.7393C2.42305 35.7185 2.4219 35.6928 2.42711 35.6695Z" fill="#FDFDFD"/><mask id="mask0_516_1192" maskUnits="userSpaceOnUse" x="0" y="2" width="44" height="42" style="mask-type: alpha;"><path d="M2.42711 35.6695C2.42618 35.65 2.42557 35.6306 2.42528 35.6111C2.40078 33.8034 2.42532 31.9915 2.42535 30.1834L2.42552 19.3134L2.42504 14.2611C2.42447 12.7542 2.33118 11.2292 2.65992 9.74833C2.68493 9.63907 2.71182 9.53028 2.74062 9.42199C2.7694 9.31366 2.80007 9.20586 2.8326 9.09859C2.86514 8.99134 2.89953 8.88469 2.93578 8.77862C2.97202 8.67258 3.0101 8.56718 3.05001 8.46243C3.08992 8.35771 3.13163 8.25371 3.17516 8.15043C3.21868 8.04712 3.26399 7.94461 3.31108 7.84291C3.35817 7.74122 3.40701 7.64035 3.45761 7.54033C3.50821 7.44033 3.56052 7.34123 3.61457 7.24302C3.66861 7.14484 3.72434 7.04761 3.78176 6.95134C3.83918 6.8551 3.89826 6.75988 3.95899 6.66569C4.01972 6.57148 4.08207 6.47836 4.14604 6.38634C4.21001 6.29429 4.27556 6.20339 4.34269 6.11363C4.40982 6.0239 4.4785 5.93534 4.54872 5.84795C4.61892 5.7606 4.69062 5.67448 4.76384 5.58959C4.83702 5.50472 4.91168 5.42115 4.9878 5.33887C5.06389 5.25659 5.1414 5.17566 5.22034 5.09608C5.26727 5.04935 5.31467 5.00312 5.36254 4.95739C5.41042 4.91166 5.45876 4.86643 5.50757 4.8217C5.55638 4.77693 5.60566 4.7327 5.65541 4.68899C5.70513 4.64526 5.75529 4.60205 5.80589 4.55937C5.85652 4.51669 5.90757 4.47452 5.95905 4.43287C6.01053 4.39124 6.06245 4.35014 6.11481 4.30958C6.16714 4.26902 6.21988 4.229 6.27304 4.18952C6.32619 4.15005 6.37975 4.11112 6.43372 4.07275C6.4877 4.03438 6.54205 3.99657 6.59679 3.95932C6.65153 3.92208 6.70664 3.8854 6.76214 3.84928C6.81764 3.81318 6.8735 3.77764 6.92974 3.74268C6.986 3.70772 7.0426 3.67335 7.09953 3.63956C7.15647 3.60577 7.21376 3.57257 7.2714 3.53996C7.32901 3.50735 7.38697 3.47534 7.44528 3.44393C7.50357 3.41252 7.56216 3.38171 7.62106 3.35151C7.68 3.3213 7.73923 3.29171 7.79878 3.26273C7.85833 3.23375 7.91815 3.20539 7.97826 3.17764C8.03839 3.1499 8.09879 3.12277 8.15945 3.09627C8.22014 3.06977 8.28109 3.0439 8.34231 3.01866C8.40353 2.99342 8.465 2.96881 8.52672 2.94484C8.58843 2.92086 8.6504 2.89753 8.71262 2.87483C8.7748 2.85214 8.83722 2.83009 8.89988 2.80868C8.96257 2.78728 9.02544 2.76652 9.08851 2.74641C9.15161 2.7263 9.21489 2.70684 9.27837 2.68804C9.34188 2.66924 9.40556 2.65109 9.46942 2.6336C9.53328 2.61611 9.59731 2.59928 9.66152 2.58312C9.72573 2.56695 9.7901 2.55145 9.85464 2.53661C9.91917 2.52177 9.98385 2.50759 10.0487 2.49409C10.1135 2.48058 10.1785 2.46775 10.2436 2.45558C10.3086 2.44342 10.3738 2.43193 10.4391 2.42111C10.5045 2.41029 10.5699 2.40015 10.6355 2.39068C10.701 2.38121 10.7666 2.37242 10.8323 2.36431C11.5518 2.2782 12.2695 2.2916 12.9925 2.29111L27.1696 2.2929L31.3723 2.29199C32.8394 2.29157 34.1939 2.22272 35.6367 2.55546C37.3381 2.94788 38.9752 3.87125 40.2055 5.11126C41.9008 6.81991 42.8142 9.00764 42.9805 11.3913C43.0073 11.7763 42.9894 12.1733 42.9891 12.5598L42.9885 14.6627L42.9869 20.2965L42.9861 31.0708L42.9878 33.9493C42.988 34.4984 43.0357 35.0914 42.9425 35.6317C42.6873 37.1133 42.1525 38.511 41.2768 39.7375C41.1172 39.9612 40.9523 40.2064 40.7597 40.4027C40.6693 40.3562 40.5783 40.3132 40.4971 40.2514C40.0664 40.0759 39.6518 39.8457 39.2354 39.6386L36.5952 38.3192L33.1016 36.5943L32.0479 36.0669C31.8488 35.9671 31.6376 35.874 31.4483 35.7573C31.1405 36.0929 30.7712 36.3873 30.4294 36.6891L28.7471 38.1772L23.6628 42.6936C23.5089 42.8101 23.3758 42.9517 23.2421 43.09C22.7696 40.8507 22.4151 38.5849 21.952 36.3433C21.3002 36.6922 20.626 37.009 19.9645 37.3399L15.9831 39.3302C13.5167 40.5938 11.0405 41.8379 8.55452 43.0626C8.67165 42.7563 8.8675 42.4544 9.02409 42.1656L9.93001 40.4883L13.6069 33.6432C13.2493 33.7938 12.8355 33.8726 12.4605 33.9773L10.2124 34.6075L3.8733 36.3855C2.88619 36.6639 1.87763 36.9072 0.901798 37.2207C0.997261 37.132 2.41069 35.7407 2.41147 35.7393C2.42305 35.7185 2.4219 35.6928 2.42711 35.6695Z" fill="#FDFDFD"/></mask><g mask="url(#mask0_516_1192)"><path d="M2.42529 35.6111C2.42557 35.6306 2.42618 35.65 2.42711 35.6695C2.62864 35.4025 3.02614 35.1042 3.28721 34.8824C4.00376 34.2704 4.67601 33.5922 5.35639 32.9405C6.65623 31.6952 7.97223 30.4085 9.10435 29.0067C10.1547 27.7062 11.0691 26.2712 11.9239 24.836C12.2344 24.3147 12.8031 23.4543 12.9938 22.9278C13.1222 22.6402 13.2871 22.3798 13.4385 22.1051C13.5912 21.8282 13.7334 21.5438 13.8743 21.2608C14.4258 20.1455 14.9188 19.0048 15.3533 17.8388C16.2029 15.5877 16.7841 13.2524 17.7329 11.0364C17.9861 10.445 18.2415 9.85516 18.5734 9.30296C19.536 7.76784 20.7953 6.73045 22.5928 6.31751C24.5402 5.87012 27.0095 5.99394 28.7286 7.07312C31.0899 8.55548 32.2409 11.4964 32.8284 14.0973C32.9101 14.4669 32.9835 14.8382 33.0486 15.211C33.0858 15.4303 33.1097 15.657 33.1579 15.8737C33.4566 15.9666 33.7498 16.1227 34.0348 16.2522L35.5652 16.9463L41.3373 19.554C41.6215 19.6801 39.8078 52.9663 40 53L51 15.8737L45.5 12C45.5003 11.6136 46.0268 10.885 46 10.5C45.8338 8.1163 44.1953 4.29177 42.5 2.58311C41.2698 1.3431 39.6326 0.419731 37.9312 0.0273124C36.4885 -0.305429 32.467 -1.00042 31 -1L27 -1.5L13 -0.5C12.6713 0.980908 -2.50057 7.59171 -2.5 9.09858L-0.5 14.6626L-2.5 40.5C-2.50003 42.3081 2.40078 33.8034 2.42529 35.6111Z" fill="#4D70EF"/></g><path d="M10.4885 5.67935C10.551 5.65114 10.5956 5.61621 10.6661 5.63482C10.852 5.68397 11.1603 5.86582 11.3445 5.95219L13.0315 6.73372L16.941 8.53209L17.991 9.01398C18.179 9.10052 18.4055 9.18232 18.5734 9.30297C18.2415 9.85517 17.9861 10.445 17.7329 11.0364C16.7841 13.2524 16.2029 15.5877 15.3533 17.8388C14.9188 19.0048 14.4258 20.1455 13.8743 21.2608C13.7334 21.5439 13.5912 21.8282 13.4385 22.1051C13.2871 22.3798 13.1222 22.6402 12.9938 22.9278C12.8323 22.6833 12.695 22.2172 12.5846 21.936L11.6799 19.6288L9.55258 14.2082L8.99761 12.7945C8.90864 12.5672 8.77431 12.3137 8.73633 12.0751C8.60398 11.8925 8.41879 11.7446 8.28177 11.5617C7.79297 10.9093 7.61667 10.0454 7.62828 9.24427C7.64254 8.26092 7.95428 7.36657 8.67289 6.67489C8.99963 6.36042 10.0483 5.67108 10.4885 5.67935Z" fill="#003C96"/><path d="M8.73633 12.0751C8.60398 11.8925 8.41879 11.7446 8.28177 11.5617C7.79297 10.9093 7.61667 10.0454 7.62828 9.24427C7.64254 8.26091 7.95428 7.36657 8.67289 6.67489C8.99963 6.36042 10.0483 5.67107 10.4885 5.67934C10.4657 5.70067 10.4431 5.72226 10.4207 5.74411C10.3984 5.76599 10.3763 5.78814 10.3546 5.81055C10.3328 5.83296 10.3113 5.85564 10.2901 5.87857C10.2688 5.90151 10.2479 5.92472 10.2272 5.94818C10.2066 5.97165 10.1862 5.99536 10.1662 6.01933C10.1461 6.04327 10.1263 6.06747 10.1069 6.09193C10.0874 6.11636 10.0682 6.14105 10.0494 6.16598C10.0305 6.19089 10.012 6.21602 9.99372 6.2414C9.97548 6.2668 9.95755 6.29241 9.93995 6.31822C9.92232 6.34403 9.90503 6.37007 9.88808 6.39632C9.87109 6.42255 9.85445 6.44899 9.83814 6.47565C9.8218 6.50232 9.80581 6.52917 9.79018 6.55622C9.77451 6.58326 9.75919 6.6105 9.7442 6.63793C9.72921 6.66535 9.71456 6.69295 9.70024 6.72073C9.68596 6.74851 9.67199 6.77647 9.65835 6.8046C9.64474 6.83273 9.63148 6.86103 9.61858 6.88952C9.60564 6.91797 9.59307 6.94657 9.58087 6.97532C9.56864 7.00409 9.55677 7.03302 9.54527 7.06209C9.53378 7.09113 9.52263 7.12031 9.51183 7.14965C9.50107 7.17898 9.49066 7.20844 9.48059 7.23804C9.47053 7.26764 9.46084 7.29735 9.45151 7.32719C9.44218 7.35702 9.43322 7.38695 9.42463 7.41699C9.41606 7.44706 9.40785 7.47721 9.39999 7.50745C9.39215 7.5377 9.38469 7.56804 9.37759 7.59849C9.37049 7.62894 9.36376 7.65946 9.35739 7.69005C9.35106 7.72065 9.3451 7.75132 9.33953 7.78206C9.33393 7.81283 9.32871 7.84364 9.32387 7.8745C9.31906 7.90539 9.31461 7.93632 9.31053 7.9673C9.30646 7.9983 9.30276 8.02934 9.29945 8.0604C9.29616 8.09149 9.29324 8.12262 9.29069 8.15377C9.28817 8.18492 9.28601 8.21609 9.28422 8.24727C9.28246 8.27848 9.28108 8.30971 9.28009 8.34095C9.25413 9.46229 9.75542 10.6322 10.53 11.4353C10.5502 11.4563 10.5707 11.477 10.5914 11.4975C10.6121 11.518 10.6331 11.5382 10.6543 11.5581C10.6755 11.5781 10.697 11.5978 10.7187 11.6172C10.7404 11.6366 10.7624 11.6558 10.7845 11.6746C10.8067 11.6935 10.8292 11.7121 10.8518 11.7304C10.8745 11.7488 10.8973 11.7668 10.9204 11.7846C10.9435 11.8023 10.9668 11.8198 10.9904 11.837C11.0139 11.8541 11.0377 11.871 11.0616 11.8876C11.0856 11.9041 11.1097 11.9204 11.1341 11.9364C11.1584 11.9524 11.183 11.9681 11.2077 11.9834C11.2325 11.9988 11.2574 12.0139 11.2825 12.0286C11.3077 12.0434 11.333 12.0578 11.3584 12.0719C11.3839 12.086 11.4096 12.0998 11.4354 12.1133C11.4612 12.1268 11.4872 12.14 11.5133 12.1528C11.5395 12.1656 11.5658 12.1782 11.5923 12.1903C11.6187 12.2025 11.6453 12.2144 11.6721 12.2259C11.6989 12.2374 11.7258 12.2486 11.7528 12.2595C11.7798 12.2703 11.807 12.2808 11.8343 12.291C11.8616 12.3011 11.889 12.311 11.9166 12.3205C11.9441 12.33 11.9718 12.3391 11.9995 12.3479C12.0273 12.3567 12.0552 12.3652 12.0831 12.3733C12.1111 12.3814 12.1392 12.3892 12.1674 12.3966C12.1956 12.404 12.2238 12.4111 12.2522 12.4178C12.2805 12.4245 12.3089 12.4308 12.3374 12.4369C12.3659 12.4429 12.3945 12.4485 12.4232 12.4538C12.4518 12.4591 12.4805 12.4641 12.5093 12.4686C12.5381 12.4732 12.5669 12.4774 12.5957 12.4813C12.6246 12.4851 12.6536 12.4886 12.6825 12.4918C12.7115 12.4949 12.7405 12.4977 12.7695 12.5001C12.7985 12.5026 12.8276 12.5046 12.8567 12.5063C12.8858 12.508 12.9149 12.5094 12.944 12.5103C12.9731 12.5113 13.0022 12.5119 13.0313 12.5122C13.2169 12.5145 13.3942 12.4931 13.5767 12.4616C12.6594 12.9825 11.5488 13.2801 10.5061 12.9891C9.88715 12.8162 9.21725 12.5004 8.73633 12.0751Z" fill="#FDFDFD"/><path d="M33.1579 15.8737C33.4566 15.9666 33.7498 16.1227 34.0347 16.2522L35.5652 16.9463L41.3372 19.554C41.6215 19.6801 42.7947 20.2628 42.9869 20.2965L42.9861 31.0708L42.9878 33.9493C42.988 34.4984 43.0356 35.0914 42.9425 35.6317C42.6873 37.1133 42.1525 38.511 41.2768 39.7375C41.1172 39.9612 40.9523 40.2064 40.7597 40.4027C40.6693 40.3562 40.5783 40.3132 40.4971 40.2514C40.1259 39.7489 39.8355 39.1545 39.5346 38.6063C38.8346 37.3586 38.187 36.0842 37.5917 34.7832C37.4109 34.3904 37.2221 33.9994 37.0505 33.6025C36.9525 33.376 36.8703 33.1438 36.769 32.9185C35.9817 31.1678 35.285 29.5939 34.8227 27.7154C34.4101 26.0395 34.2196 24.352 34.0176 22.6428L33.5065 18.4832C33.4015 17.6455 33.3235 16.6941 33.1579 15.8737Z" fill="#003C96"/><path d="M3.28721 34.8824L3.30895 34.943C3.35061 34.9526 3.33016 34.9551 3.36445 34.9384C3.69102 34.7791 4.21176 34.7134 4.57604 34.6191C5.69892 34.3285 6.82722 34.0543 7.93949 33.7249C10.2425 33.043 12.533 32.3126 14.8272 31.6014L16.4215 31.0988C16.6797 31.0187 16.9832 30.8868 17.2506 30.8741L17.2947 30.8951C17.2641 31.0369 16.11 32.7816 15.9402 33.0513C15.0745 34.426 14.2439 35.8249 13.3719 37.1955C12.6547 38.3227 11.9665 39.4558 11.3092 40.6193C11.1869 40.8357 11.0681 41.0612 10.938 41.2723C10.8863 41.3563 10.817 41.4311 10.7739 41.5197C10.8605 41.5236 10.9601 41.4523 11.0329 41.4069C11.4384 41.1541 11.8278 40.8712 12.2312 40.6135L16.3196 38.01L20.0868 35.6151C20.606 35.282 21.1349 34.9605 21.6449 34.6137C21.918 34.4279 23.4983 33.2335 23.6299 33.2428C23.6774 33.2988 23.6675 33.4296 23.6692 33.5043C23.6883 34.3105 23.6591 35.1177 23.6605 35.9238L23.6712 40.9845C23.6707 41.3893 23.6552 41.7943 23.6537 42.1993C23.653 42.3596 23.6385 42.5357 23.6628 42.6936C23.5089 42.8101 23.3758 42.9517 23.2421 43.09C22.7696 40.8507 22.4151 38.5849 21.952 36.3433C21.3002 36.6922 20.626 37.009 19.9645 37.3399L15.9831 39.3302C13.5167 40.5938 11.0405 41.8379 8.55452 43.0626C8.67165 42.7563 8.8675 42.4544 9.02409 42.1656L9.93001 40.4883L13.6069 33.6432C13.2493 33.7938 12.8355 33.8726 12.4605 33.9773L10.2124 34.6075L3.8733 36.3855C2.88619 36.6639 1.87763 36.9072 0.901798 37.2207C0.997261 37.132 2.41147 35.7393 2.41147 35.7393C2.42305 35.7185 2.4219 35.6928 2.42711 35.6695C2.62864 35.4025 3.02614 35.1042 3.28721 34.8824Z" fill="#E4E3E3"/><path d="M29.3303 11.9065C29.6166 11.8744 29.9389 11.9784 30.1757 12.1374C30.6046 12.4253 30.8897 12.9429 30.9843 13.4429C31.1652 14.4 31.2191 15.8008 30.6462 16.6357C30.3935 17.0039 30.0597 17.2323 29.6216 17.3157C29.3066 17.3219 29.0286 17.2772 28.7578 17.1061C28.3219 16.8306 28.0539 16.3683 27.9411 15.8737C27.7378 14.9825 27.6865 13.4705 28.1922 12.6786C28.4704 12.2429 28.8328 12.0171 29.3303 11.9065Z" fill="black"/><path d="M23.2509 11.8628C23.5098 11.8411 23.7979 11.9234 24.0197 12.0553C24.4759 12.3267 24.7558 12.8102 24.8848 13.3134C25.0993 14.1504 25.0877 15.7024 24.6431 16.4467C24.3825 16.883 24.0181 17.1309 23.5305 17.2537C23.2239 17.263 22.9644 17.2157 22.6985 17.058C22.2372 16.7844 21.9762 16.3352 21.8505 15.8254C21.6426 14.9816 21.632 13.389 22.0961 12.6331C22.3695 12.1875 22.7554 11.9805 23.2509 11.8628Z" fill="black"/></svg>