<svg width="24" height="24" viewBox="0 0 24 24" fill="none" xmlns="http://www.w3.org/2000/svg">
<g clip-path="url(#clip0_209_5343)">
<path d="M12 24C18.6274 24 24 18.6274 24 12C24 5.37258 18.6274 0 12 0C5.37258 0 0 5.37258 0 12C0 18.6274 5.37258 24 12 24Z" fill="#1F1F22"/>
<path fill-rule="evenodd" clip-rule="evenodd" d="M16.686 17.467C17.8031 16.5096 18.6 15.233 18.9696 13.8091C19.3392 12.3851 19.2637 10.8821 18.7533 9.50229C18.243 8.1225 17.3221 6.93217 16.1148 6.0915C14.9075 5.25084 13.4717 4.80018 12.0005 4.80018C10.5294 4.80018 9.09352 5.25084 7.88621 6.0915C6.67891 6.93217 5.7581 8.1225 5.24771 9.50229C4.73732 10.8821 4.66185 12.3851 5.03146 13.8091C5.40107 15.233 6.19801 16.5096 7.31503 17.467L5.75203 19.289C4.69961 18.3886 3.85494 17.2706 3.27626 16.0123C2.69757 14.7539 2.39863 13.385 2.40003 12C2.40003 9.45392 3.41145 7.01212 5.2118 5.21177C7.01215 3.41142 9.45395 2.39999 12 2.39999C13.2607 2.39999 14.5091 2.64831 15.6738 3.13075C16.8385 3.6132 17.8968 4.32033 18.7883 5.21177C19.6797 6.10321 20.3868 7.16151 20.8693 8.32623C21.3517 9.49096 21.6 10.7393 21.6 12C21.6016 13.3852 21.3027 14.7543 20.724 16.0128C20.1453 17.2714 19.3006 18.3895 18.248 19.29L16.686 17.467Z" fill="#CDCDCD" fill-opacity="0.1"/>
<path fill-rule="evenodd" clip-rule="evenodd" d="M16.686 17.467C17.8031 16.5096 18.6 15.233 18.9696 13.8091C19.3392 12.3851 19.2637 10.8821 18.7533 9.50229C18.243 8.1225 17.3221 6.93217 16.1148 6.0915C14.9075 5.25084 13.4717 4.80018 12.0005 4.80018C10.5294 4.80018 9.09352 5.25084 7.88621 6.0915C6.67891 6.93217 5.7581 8.1225 5.24771 9.50229C4.73732 10.8821 4.66185 12.3851 5.03146 13.8091C5.40107 15.233 6.19801 16.5096 7.31503 17.467L5.75203 19.289C4.69961 18.3886 3.85494 17.2706 3.27626 16.0123C2.69757 14.7539 2.39863 13.385 2.40003 12C2.40003 9.45392 3.41145 7.01212 5.2118 5.21177C7.01215 3.41142 9.45395 2.39999 12 2.39999C13.2607 2.39999 14.5091 2.64831 15.6738 3.13075C16.8385 3.6132 17.8968 4.32033 18.7883 5.21177C19.6797 6.10321 20.3868 7.16151 20.8693 8.32623C21.3517 9.49096 21.6 10.7393 21.6 12C21.6016 13.3852 21.3027 14.7543 20.724 16.0128C20.1453 17.2714 19.3006 18.3895 18.248 19.29L16.686 17.467Z" fill="#FE1F00"/>
<path d="M9.23297 10.233L7.74597 11.057V10.023L9.46797 8.94801H10.459V14.4H9.23297V10.233ZM13.828 14.484C13.582 14.484 13.38 14.475 13.224 14.459C13.0506 14.439 12.879 14.4052 12.711 14.358C12.5421 14.3132 12.3846 14.2331 12.249 14.123C12.1178 13.996 12.0172 13.8407 11.955 13.669C11.8656 13.4506 11.8227 13.2159 11.829 12.98V10.368C11.829 10.11 11.869 9.88301 11.947 9.68801C12.0112 9.51276 12.1145 9.35443 12.249 9.22501C12.356 9.13001 12.501 9.05501 12.686 8.99901C12.8655 8.93839 13.0514 8.8988 13.24 8.88101C13.453 8.87001 13.65 8.86401 13.828 8.86401C14.08 8.86401 14.282 8.87301 14.433 8.88901C14.6041 8.90454 14.7731 8.9384 14.937 8.99001C15.139 9.05201 15.298 9.13301 15.416 9.23401C15.534 9.33401 15.634 9.48001 15.718 9.67101C15.802 9.86101 15.844 10.093 15.844 10.368V12.98C15.844 13.238 15.802 13.465 15.718 13.66C15.6552 13.8334 15.5516 13.9891 15.416 14.114C15.279 14.2221 15.122 14.302 14.954 14.349C14.764 14.411 14.582 14.447 14.408 14.459C14.2152 14.4774 14.0216 14.4857 13.828 14.484ZM13.845 13.694C14.08 13.694 14.248 13.68 14.349 13.652C14.3938 13.6399 14.4353 13.6178 14.4703 13.5873C14.5053 13.5568 14.5329 13.5187 14.551 13.476C14.584 13.392 14.601 13.255 14.601 13.064V10.284C14.601 10.094 14.584 9.95601 14.551 9.87201C14.5335 9.82972 14.5059 9.79232 14.4707 9.76305C14.4355 9.73378 14.3937 9.71352 14.349 9.70401C14.249 9.67101 14.08 9.65401 13.845 9.65401C13.605 9.65401 13.431 9.67101 13.325 9.70401C13.2802 9.71352 13.2384 9.73378 13.2032 9.76305C13.168 9.79232 13.1405 9.82972 13.123 9.87201C13.089 9.95601 13.073 10.093 13.073 10.284V13.064C13.073 13.254 13.089 13.392 13.123 13.476C13.156 13.56 13.223 13.619 13.324 13.652C13.431 13.68 13.604 13.694 13.845 13.694Z" fill="#FE1F00"/>
</g>
<defs>
<clipPath id="clip0_209_5343">
<rect width="24" height="24" fill="white"/>
</clipPath>
</defs>
</svg>
