<svg width="24" height="24" viewBox="0 0 24 24" fill="none" xmlns="http://www.w3.org/2000/svg">
<g clip-path="url(#clip0_209_5338)">
<path d="M12 24C18.6274 24 24 18.6274 24 12C24 5.37258 18.6274 0 12 0C5.37258 0 0 5.37258 0 12C0 18.6274 5.37258 24 12 24Z" fill="#1F1F22"/>
<path fill-rule="evenodd" clip-rule="evenodd" d="M16.685 17.467C17.8021 16.5096 18.599 15.233 18.9686 13.8091C19.3382 12.3851 19.2627 10.8821 18.7523 9.50229C18.242 8.1225 17.3211 6.93217 16.1138 6.0915C14.9065 5.25084 13.4707 4.80018 11.9995 4.80018C10.5284 4.80018 9.09252 5.25084 7.88521 6.0915C6.67791 6.93217 5.7571 8.1225 5.24671 9.50229C4.73632 10.8821 4.66086 12.3851 5.03046 13.8091C5.40007 15.233 6.19701 16.5096 7.31403 17.467L5.75103 19.289C4.69879 18.3885 3.85432 17.2705 3.27581 16.0122C2.6973 14.7538 2.39851 13.385 2.40003 12C2.40003 9.45392 3.41146 7.01212 5.2118 5.21177C7.01215 3.41142 9.45395 2.39999 12 2.39999C13.2607 2.39999 14.5091 2.64831 15.6738 3.13075C16.8385 3.6132 17.8968 4.32033 18.7883 5.21177C19.6797 6.10321 20.3868 7.16151 20.8693 8.32623C21.3517 9.49096 21.6 10.7393 21.6 12C21.6016 13.3852 21.3027 14.7543 20.724 16.0128C20.1453 17.2714 19.3006 18.3895 18.248 19.29L16.685 17.467Z" fill="#CDCDCD" fill-opacity="0.1"/>
<path fill-rule="evenodd" clip-rule="evenodd" d="M5.89397 15.816L3.85797 17.09C4.37483 17.9146 5.01338 18.6563 5.75197 19.29L7.31397 17.468C6.75981 16.9931 6.28102 16.4367 5.89397 15.818V15.816Z" fill="#EEEEEE"/>
<path d="M11.765 10.233L10.278 11.057V10.023L12 8.948H12.991V14.4H11.765V10.233Z" fill="#EEEEEE"/>
</g>
<defs>
<clipPath id="clip0_209_5338">
<rect width="24" height="24" fill="white"/>
</clipPath>
</defs>
</svg>
