<svg width="24" height="24" viewBox="0 0 24 24" fill="none" xmlns="http://www.w3.org/2000/svg">
<g clip-path="url(#clip0_209_5333)">
<path d="M12 24C18.6274 24 24 18.6274 24 12C24 5.37258 18.6274 0 12 0C5.37258 0 0 5.37258 0 12C0 18.6274 5.37258 24 12 24Z" fill="#1F1F22"/>
<path fill-rule="evenodd" clip-rule="evenodd" d="M16.685 17.467C17.8021 16.5096 18.599 15.233 18.9686 13.8091C19.3382 12.3851 19.2627 10.8821 18.7523 9.50229C18.242 8.1225 17.3211 6.93217 16.1138 6.0915C14.9065 5.25084 13.4707 4.80018 11.9995 4.80018C10.5284 4.80018 9.09252 5.25084 7.88521 6.0915C6.67791 6.93217 5.7571 8.1225 5.24671 9.50229C4.73632 10.8821 4.66086 12.3851 5.03046 13.8091C5.40007 15.233 6.19701 16.5096 7.31403 17.467L5.75103 19.289C4.69879 18.3885 3.85432 17.2705 3.27581 16.0122C2.6973 14.7538 2.39851 13.385 2.40003 12C2.40003 9.45392 3.41146 7.01212 5.2118 5.21177C7.01215 3.41142 9.45395 2.39999 12 2.39999C13.2607 2.39999 14.5091 2.64831 15.6738 3.13075C16.8385 3.6132 17.8968 4.32033 18.7883 5.21177C19.6797 6.10321 20.3868 7.16151 20.8693 8.32623C21.3517 9.49096 21.6 10.7393 21.6 12C21.6016 13.3852 21.3027 14.7543 20.724 16.0128C20.1453 17.2714 19.3006 18.3895 18.248 19.29L16.685 17.467Z" fill="#CDCDCD" fill-opacity="0.1"/>
<path fill-rule="evenodd" clip-rule="evenodd" d="M5.257 14.53L3.008 15.372C3.5778 16.8879 4.52133 18.2352 5.751 19.289L7.314 17.467C6.39168 16.6767 5.6841 15.667 5.257 14.53Z" fill="#1CE400"/>
<path d="M10.05 13.157C10.05 12.854 10.134 12.591 10.302 12.367C10.4714 12.1416 10.6974 11.965 10.957 11.855C11.2015 11.7475 11.4511 11.6521 11.705 11.569C11.9383 11.4979 12.1612 11.3963 12.368 11.267C12.525 11.16 12.603 11.034 12.603 10.889V10.191C12.603 10.018 12.533 9.90301 12.393 9.84701C12.243 9.78501 12.007 9.75501 11.688 9.75501C11.301 9.75501 10.792 9.82501 10.159 9.96501V9.04001C10.7366 8.9204 11.3251 8.86108 11.915 8.86301C12.575 8.86301 13.065 8.96401 13.385 9.16601C13.709 9.36701 13.872 9.70301 13.872 10.174V10.93C13.872 11.215 13.785 11.464 13.612 11.677C13.4381 11.8883 13.2119 12.0503 12.956 12.147C12.704 12.254 12.446 12.349 12.183 12.433C11.9414 12.5118 11.7124 12.625 11.503 12.769C11.341 12.892 11.259 13.039 11.259 13.206V13.483H13.88V14.399H10.05V13.157Z" fill="#1CE400"/>
</g>
<defs>
<clipPath id="clip0_209_5333">
<rect width="24" height="24" fill="white"/>
</clipPath>
</defs>
</svg>
