<svg width="24" height="24" viewBox="0 0 24 24" fill="none" xmlns="http://www.w3.org/2000/svg">
<g clip-path="url(#clip0_209_5328)">
<path d="M12 24C18.6274 24 24 18.6274 24 12C24 5.37258 18.6274 0 12 0C5.37258 0 0 5.37258 0 12C0 18.6274 5.37258 24 12 24Z" fill="#1F1F22"/>
<path fill-rule="evenodd" clip-rule="evenodd" d="M16.686 17.467C17.8031 16.5096 18.6 15.233 18.9696 13.8091C19.3392 12.3851 19.2637 10.8821 18.7533 9.50229C18.243 8.1225 17.3221 6.93217 16.1148 6.0915C14.9075 5.25084 13.4717 4.80018 12.0005 4.80018C10.5294 4.80018 9.09352 5.25084 7.88621 6.0915C6.67891 6.93217 5.7581 8.1225 5.24771 9.50229C4.73732 10.8821 4.66185 12.3851 5.03146 13.8091C5.40107 15.233 6.19801 16.5096 7.31503 17.467L5.75203 19.289C4.69961 18.3886 3.85494 17.2706 3.27626 16.0123C2.69757 14.7539 2.39863 13.385 2.40003 12C2.40003 9.45392 3.41145 7.01212 5.2118 5.21177C7.01215 3.41142 9.45395 2.39999 12 2.39999C13.2607 2.39999 14.5091 2.64831 15.6738 3.13075C16.8385 3.6132 17.8968 4.32033 18.7883 5.21177C19.6797 6.10321 20.3868 7.16151 20.8693 8.32623C21.3517 9.49096 21.6 10.7393 21.6 12C21.6016 13.3852 21.3027 14.7543 20.724 16.0128C20.1453 17.2714 19.3006 18.3895 18.248 19.29L16.686 17.467Z" fill="#CDCDCD" fill-opacity="0.1"/>
<path fill-rule="evenodd" clip-rule="evenodd" d="M2.40003 12C2.39849 13.3852 2.69736 14.7543 3.27605 16.0128C3.85474 17.2714 4.69948 18.3895 5.75203 19.29L7.31403 17.467C6.52481 16.7916 5.89145 15.9531 5.4576 15.0093C5.02376 14.0654 4.79975 13.0388 4.80103 12H2.40003Z" fill="#1CE400"/>
<path d="M11.79 14.484C11.32 14.484 10.71 14.442 9.95898 14.358V13.383L10.228 13.433C10.334 13.456 10.393 13.47 10.404 13.476L10.69 13.526C10.757 13.537 10.9 13.554 11.118 13.576C11.286 13.593 11.457 13.602 11.631 13.602C11.955 13.602 12.179 13.562 12.303 13.484C12.431 13.406 12.496 13.257 12.496 13.039V12.409C12.496 12.146 12.213 12.014 11.647 12.014H10.657V11.174H11.647C12.084 11.174 12.303 11.014 12.303 10.695V10.166C12.309 10.0714 12.2852 9.97735 12.235 9.897C12.191 9.83 12.109 9.783 11.992 9.755C11.8261 9.72201 11.657 9.70792 11.488 9.713C11.168 9.713 10.676 9.746 10.009 9.813V8.94C10.771 8.89 11.309 8.864 11.622 8.864C12.305 8.864 12.798 8.943 13.101 9.099C13.409 9.256 13.563 9.533 13.563 9.931V10.83C13.5663 10.984 13.5121 11.1337 13.411 11.25C13.3147 11.3628 13.1852 11.4423 13.041 11.477C13.535 11.65 13.781 11.922 13.781 12.291V13.181C13.781 13.647 13.621 13.98 13.302 14.181C12.983 14.383 12.479 14.484 11.79 14.484Z" fill="#1CE400"/>
</g>
<defs>
<clipPath id="clip0_209_5328">
<rect width="24" height="24" fill="white"/>
</clipPath>
</defs>
</svg>
