<svg width="24" height="24" viewBox="0 0 24 24" fill="none" xmlns="http://www.w3.org/2000/svg">
<g clip-path="url(#clip0_209_5323)">
<path d="M12 24C18.6274 24 24 18.6274 24 12C24 5.37258 18.6274 0 12 0C5.37258 0 0 5.37258 0 12C0 18.6274 5.37258 24 12 24Z" fill="#1F1F22"/>
<path fill-rule="evenodd" clip-rule="evenodd" d="M16.686 17.467C17.8031 16.5096 18.6 15.233 18.9696 13.8091C19.3392 12.3851 19.2637 10.8821 18.7533 9.50229C18.243 8.1225 17.3221 6.93217 16.1148 6.0915C14.9075 5.25084 13.4717 4.80018 12.0005 4.80018C10.5294 4.80018 9.09352 5.25084 7.88621 6.0915C6.67891 6.93217 5.7581 8.1225 5.24771 9.50229C4.73732 10.8821 4.66185 12.3851 5.03146 13.8091C5.40107 15.233 6.19801 16.5096 7.31503 17.467L5.75203 19.289C4.69961 18.3886 3.85494 17.2706 3.27626 16.0123C2.69757 14.7539 2.39863 13.385 2.40003 12C2.40003 9.45392 3.41145 7.01212 5.2118 5.21177C7.01215 3.41142 9.45395 2.39999 12 2.39999C13.2607 2.39999 14.5091 2.64831 15.6738 3.13075C16.8385 3.6132 17.8968 4.32033 18.7883 5.21177C19.6797 6.10321 20.3868 7.16151 20.8693 8.32623C21.3517 9.49096 21.6 10.7393 21.6 12C21.6016 13.3852 21.3027 14.7543 20.724 16.0128C20.1453 17.2714 19.3006 18.3895 18.248 19.29L16.686 17.467Z" fill="#CDCDCD" fill-opacity="0.1"/>
<path fill-rule="evenodd" clip-rule="evenodd" d="M6.90997 6.91L5.21097 5.211C4.31825 6.10161 3.61034 7.15987 3.12793 8.32496C2.64552 9.49005 2.39813 10.739 2.39997 12C2.39857 13.385 2.69752 14.7539 3.2762 16.0123C3.85489 17.2707 4.69955 18.3886 5.75197 19.289L7.31397 17.467C6.52476 16.7916 5.89139 15.9531 5.45755 15.0093C5.0237 14.0654 4.7997 13.0388 4.80097 12C4.80097 10.012 5.60697 8.212 6.90997 6.91Z" fill="#FFC800"/>
<path d="M12.303 13.3H9.78302V12.333L12.026 8.948H13.412V12.418H14V13.299H13.412V14.399H12.303V13.299V13.3ZM12.303 12.417V10.107L10.833 12.417H12.303Z" fill="#FFC800"/>
</g>
<defs>
<clipPath id="clip0_209_5323">
<rect width="24" height="24" fill="white"/>
</clipPath>
</defs>
</svg>
