<svg width="24" height="24" viewBox="0 0 24 24" fill="none" xmlns="http://www.w3.org/2000/svg">
<g clip-path="url(#clip0_209_5318)">
<path d="M12 24C18.6274 24 24 18.6274 24 12C24 5.37258 18.6274 0 12 0C5.37258 0 0 5.37258 0 12C0 18.6274 5.37258 24 12 24Z" fill="#1F1F22"/>
<path fill-rule="evenodd" clip-rule="evenodd" d="M16.686 17.467C17.8031 16.5096 18.6 15.233 18.9696 13.8091C19.3392 12.3851 19.2637 10.8821 18.7533 9.50229C18.243 8.1225 17.3221 6.93217 16.1148 6.0915C14.9075 5.25084 13.4717 4.80018 12.0005 4.80018C10.5294 4.80018 9.09352 5.25084 7.88621 6.0915C6.67891 6.93217 5.7581 8.1225 5.24771 9.50229C4.73732 10.8821 4.66185 12.3851 5.03146 13.8091C5.40107 15.233 6.19801 16.5096 7.31503 17.467L5.75203 19.289C4.69961 18.3886 3.85494 17.2706 3.27626 16.0123C2.69757 14.7539 2.39863 13.385 2.40003 12C2.40003 9.45392 3.41145 7.01212 5.2118 5.21177C7.01215 3.41142 9.45395 2.39999 12 2.39999C13.2607 2.39999 14.5091 2.64831 15.6738 3.13075C16.8385 3.6132 17.8968 4.32033 18.7883 5.21177C19.6797 6.10321 20.3868 7.16151 20.8693 8.32623C21.3517 9.49096 21.6 10.7393 21.6 12C21.6016 13.3852 21.3027 14.7543 20.724 16.0128C20.1453 17.2714 19.3006 18.3895 18.248 19.29L16.686 17.467Z" fill="#CDCDCD" fill-opacity="0.1"/>
<path fill-rule="evenodd" clip-rule="evenodd" d="M12 2.39999C9.45395 2.39999 7.01215 3.41142 5.21181 5.21177C3.41146 7.01212 2.40003 9.45392 2.40003 12C2.39849 13.3852 2.69736 14.7543 3.27605 16.0128C3.85474 17.2714 4.69948 18.3895 5.75203 19.29L7.31403 17.467C6.19691 16.5096 5.39989 15.233 5.03026 13.8089C4.66062 12.3849 4.73612 10.8818 5.24657 9.5019C5.75703 8.12205 6.67795 6.93169 7.88538 6.09106C9.09281 5.25042 10.5288 4.79985 12 4.79999V2.39999Z" fill="#FFC800"/>
<path d="M11.815 14.484C11.429 14.484 10.849 14.453 10.076 14.391V13.375C10.771 13.504 11.294 13.568 11.647 13.568C11.955 13.568 12.179 13.535 12.319 13.468C12.3834 13.4389 12.4378 13.3914 12.4752 13.3314C12.5125 13.2714 12.5313 13.2017 12.529 13.131V12.317C12.529 12.165 12.479 12.059 12.378 11.997C12.277 11.93 12.112 11.897 11.882 11.897H10.202V8.948H13.646V9.889H11.43V10.998H12.286C12.611 10.998 12.928 11.059 13.236 11.183C13.4048 11.2545 13.548 11.3754 13.6469 11.5297C13.7458 11.6841 13.7956 11.8648 13.79 12.048V13.19C13.79 13.409 13.748 13.605 13.664 13.778C13.58 13.946 13.474 14.075 13.344 14.165C13.2071 14.2601 13.0534 14.3283 12.891 14.366C12.706 14.416 12.527 14.45 12.354 14.467C12.1748 14.4775 11.9954 14.4831 11.816 14.484H11.815Z" fill="#FFC800"/>
</g>
<defs>
<clipPath id="clip0_209_5318">
<rect width="24" height="24" fill="white"/>
</clipPath>
</defs>
</svg>
