<svg width="24" height="24" viewBox="0 0 24 24" fill="none" xmlns="http://www.w3.org/2000/svg">
<g clip-path="url(#clip0_209_5313)">
<path d="M12 24C18.6274 24 24 18.6274 24 12C24 5.37258 18.6274 0 12 0C5.37258 0 0 5.37258 0 12C0 18.6274 5.37258 24 12 24Z" fill="#1F1F22"/>
<path fill-rule="evenodd" clip-rule="evenodd" d="M16.686 17.467C17.8031 16.5096 18.6 15.233 18.9696 13.8091C19.3392 12.3851 19.2637 10.8821 18.7533 9.50229C18.243 8.1225 17.3221 6.93217 16.1148 6.0915C14.9075 5.25084 13.4717 4.80018 12.0005 4.80018C10.5294 4.80018 9.09352 5.25084 7.88621 6.0915C6.67891 6.93217 5.7581 8.1225 5.24771 9.50229C4.73732 10.8821 4.66185 12.3851 5.03146 13.8091C5.40107 15.233 6.19801 16.5096 7.31503 17.467L5.75203 19.289C4.69961 18.3886 3.85494 17.2706 3.27626 16.0123C2.69757 14.7539 2.39863 13.385 2.40003 12C2.40003 9.45392 3.41145 7.01212 5.2118 5.21177C7.01215 3.41142 9.45395 2.39999 12 2.39999C13.2607 2.39999 14.5091 2.64831 15.6738 3.13075C16.8385 3.6132 17.8968 4.32033 18.7883 5.21177C19.6797 6.10321 20.3868 7.16151 20.8693 8.32623C21.3517 9.49096 21.6 10.7393 21.6 12C21.6016 13.3852 21.3027 14.7543 20.724 16.0128C20.1453 17.2714 19.3006 18.3895 18.248 19.29L16.686 17.467Z" fill="#CDCDCD" fill-opacity="0.1"/>
<path fill-rule="evenodd" clip-rule="evenodd" d="M15.816 5.89499C14.276 4.93241 12.429 4.58739 10.6453 4.92908C8.86159 5.27077 7.27289 6.27392 6.19759 7.73751C5.12228 9.2011 4.6398 11.017 4.84685 12.8213C5.05389 14.6256 5.93515 16.285 7.31403 17.467L5.75203 19.289C4.69961 18.3886 3.85494 17.2706 3.27626 16.0123C2.69757 14.7539 2.39863 13.385 2.40003 12C2.40003 9.45392 3.41145 7.01212 5.2118 5.21177C7.01215 3.41142 9.45395 2.39999 12 2.39999C13.87 2.39999 15.613 2.93499 17.089 3.85799L15.816 5.89499Z" fill="#FFC800"/>
<path d="M11.992 14.484C11.7874 14.4861 11.5828 14.4778 11.379 14.459C11.2103 14.4394 11.0441 14.4025 10.883 14.349C10.7167 14.3005 10.5624 14.2178 10.43 14.106C10.3033 13.9834 10.2056 13.8341 10.144 13.669C10.0622 13.4487 10.0222 13.215 10.026 12.98V10.443C10.026 10.175 10.071 9.937 10.161 9.729C10.256 9.517 10.376 9.354 10.522 9.242C10.645 9.147 10.81 9.069 11.018 9.007C11.2139 8.94214 11.4165 8.89987 11.622 8.881C11.835 8.87 12.028 8.864 12.202 8.864C12.442 8.864 12.947 8.892 13.714 8.948V9.848C12.958 9.758 12.418 9.713 12.093 9.713C11.824 9.713 11.633 9.727 11.522 9.755C11.41 9.783 11.334 9.839 11.295 9.923C11.261 10.001 11.245 10.143 11.245 10.351V10.998H12.143C12.446 10.998 12.664 11.003 12.798 11.015C12.933 11.02 13.084 11.045 13.252 11.09C13.432 11.135 13.562 11.2 13.647 11.283C13.737 11.362 13.815 11.483 13.882 11.645C13.944 11.813 13.974 12.011 13.974 12.241V12.981C13.974 13.238 13.935 13.465 13.857 13.661C13.778 13.851 13.677 13.999 13.554 14.106C13.442 14.206 13.294 14.288 13.109 14.349C12.9358 14.4097 12.7551 14.4467 12.572 14.459C12.3792 14.4774 12.1856 14.4857 11.992 14.484ZM12.009 13.669C12.255 13.669 12.426 13.655 12.521 13.627C12.622 13.599 12.686 13.546 12.714 13.467C12.7484 13.3271 12.7625 13.1829 12.756 13.039V12.249C12.756 12.115 12.74 12.019 12.706 11.964C12.672 11.902 12.602 11.86 12.496 11.838C12.3322 11.8106 12.1661 11.7992 12 11.804H11.244V13.047C11.244 13.237 11.258 13.375 11.286 13.459C11.32 13.543 11.387 13.599 11.488 13.627C11.594 13.655 11.769 13.669 12.009 13.669Z" fill="#FFC800"/>
</g>
<defs>
<clipPath id="clip0_209_5313">
<rect width="24" height="24" fill="white"/>
</clipPath>
</defs>
</svg>
