<svg width="24" height="24" viewBox="0 0 24 24" fill="none" xmlns="http://www.w3.org/2000/svg">
<g clip-path="url(#clip0_209_5308)">
<path d="M12 24C18.6274 24 24 18.6274 24 12C24 5.37258 18.6274 0 12 0C5.37258 0 0 5.37258 0 12C0 18.6274 5.37258 24 12 24Z" fill="#1F1F22"/>
<path fill-rule="evenodd" clip-rule="evenodd" d="M16.686 17.467C17.8031 16.5096 18.6 15.233 18.9696 13.8091C19.3392 12.3851 19.2637 10.8821 18.7533 9.50229C18.243 8.1225 17.3221 6.93217 16.1148 6.0915C14.9075 5.25084 13.4717 4.80018 12.0005 4.80018C10.5294 4.80018 9.09352 5.25084 7.88621 6.0915C6.67891 6.93217 5.7581 8.1225 5.24771 9.50229C4.73732 10.8821 4.66185 12.3851 5.03146 13.8091C5.40107 15.233 6.19801 16.5096 7.31503 17.467L5.75203 19.289C4.69961 18.3886 3.85494 17.2706 3.27626 16.0123C2.69757 14.7539 2.39863 13.385 2.40003 12C2.40003 9.45392 3.41145 7.01212 5.2118 5.21177C7.01215 3.41142 9.45395 2.39999 12 2.39999C13.2607 2.39999 14.5091 2.64831 15.6738 3.13075C16.8385 3.6132 17.8968 4.32033 18.7883 5.21177C19.6797 6.10321 20.3868 7.16151 20.8693 8.32623C21.3517 9.49096 21.6 10.7393 21.6 12C21.6016 13.3852 21.3027 14.7543 20.724 16.0128C20.1453 17.2714 19.3006 18.3895 18.248 19.29L16.686 17.467Z" fill="#CDCDCD" fill-opacity="0.1"/>
<path fill-rule="evenodd" clip-rule="evenodd" d="M17.934 7.92001C17.3535 7.07657 16.5997 6.36666 15.723 5.83767C14.8463 5.30867 13.8668 4.97275 12.85 4.85233C11.8332 4.73191 10.8023 4.82976 9.82632 5.13935C8.8503 5.44894 7.95155 5.96314 7.19003 6.64764C6.42852 7.33215 5.82176 8.1712 5.41026 9.10881C4.99876 10.0464 4.79197 11.061 4.80371 12.0849C4.81544 13.1088 5.04543 14.1183 5.47831 15.0463C5.9112 15.9742 6.53703 16.7991 7.31403 17.466L5.75203 19.29C4.69948 18.3895 3.85474 17.2714 3.27605 16.0128C2.69736 14.7543 2.39849 13.3852 2.40003 12C2.39938 9.95089 3.0544 7.95533 4.2693 6.30521C5.4842 4.65509 7.19522 3.43699 9.15209 2.8291C11.109 2.22121 13.209 2.25542 15.145 2.92672C17.0811 3.59802 18.7515 4.87119 19.912 6.56001L17.934 7.92001Z" fill="#FFC800"/>
<path d="M12.546 9.906H9.90002V8.948H13.9V9.788L11.807 14.4H10.447L12.547 9.906H12.546Z" fill="#FFC800"/>
</g>
<defs>
<clipPath id="clip0_209_5308">
<rect width="24" height="24" fill="white"/>
</clipPath>
</defs>
</svg>
