<svg width="24" height="24" viewBox="0 0 24 24" fill="none" xmlns="http://www.w3.org/2000/svg">
<g clip-path="url(#clip0_209_5303)">
<path d="M12 24C18.6274 24 24 18.6274 24 12C24 5.37258 18.6274 0 12 0C5.37258 0 0 5.37258 0 12C0 18.6274 5.37258 24 12 24Z" fill="#1F1F22"/>
<path fill-rule="evenodd" clip-rule="evenodd" d="M16.686 17.467C17.8031 16.5096 18.6 15.233 18.9696 13.8091C19.3392 12.3851 19.2637 10.8821 18.7533 9.50229C18.243 8.1225 17.3221 6.93217 16.1148 6.0915C14.9075 5.25084 13.4717 4.80018 12.0005 4.80018C10.5294 4.80018 9.09352 5.25084 7.88621 6.0915C6.67891 6.93217 5.7581 8.1225 5.24771 9.50229C4.73732 10.8821 4.66185 12.3851 5.03146 13.8091C5.40107 15.233 6.19801 16.5096 7.31503 17.467L5.75203 19.289C4.69961 18.3886 3.85494 17.2706 3.27626 16.0123C2.69757 14.7539 2.39863 13.385 2.40003 12C2.40003 9.45392 3.41145 7.01212 5.2118 5.21177C7.01215 3.41142 9.45395 2.39999 12 2.39999C13.2607 2.39999 14.5091 2.64831 15.6738 3.13075C16.8385 3.6132 17.8968 4.32033 18.7883 5.21177C19.6797 6.10321 20.3868 7.16151 20.8693 8.32623C21.3517 9.49096 21.6 10.7393 21.6 12C21.6016 13.3852 21.3027 14.7543 20.724 16.0128C20.1453 17.2714 19.3006 18.3895 18.248 19.29L16.686 17.467Z" fill="#CDCDCD" fill-opacity="0.1"/>
<path fill-rule="evenodd" clip-rule="evenodd" d="M19.2 12H21.6C21.6 9.45392 20.5886 7.01212 18.7883 5.21177C16.9879 3.41142 14.5461 2.39999 12 2.39999C9.45395 2.39999 7.01215 3.41142 5.21181 5.21177C3.41146 7.01212 2.40003 9.45392 2.40003 12C2.39849 13.3852 2.69736 14.7543 3.27605 16.0128C3.85474 17.2714 4.69948 18.3895 5.75203 19.29L7.31403 17.467C6.39735 16.6812 5.69301 15.6775 5.2658 14.5482C4.83859 13.4189 4.70223 12.2003 4.86927 11.0045C5.0363 9.80873 5.50137 8.67416 6.22169 7.70517C6.94201 6.73618 7.89444 5.96389 8.99136 5.45936C10.0883 4.95482 11.2945 4.73424 12.499 4.81791C13.7035 4.90158 14.8676 5.28681 15.8842 5.93816C16.9008 6.58951 17.7373 7.48607 18.3168 8.54534C18.8962 9.60462 19.1999 10.7926 19.2 12Z" fill="#FF6309"/>
<path d="M12 14.484C11.277 14.484 10.748 14.394 10.412 14.215C10.082 14.035 9.91602 13.725 9.91602 13.283V12.342C9.91602 12.162 10.006 11.995 10.185 11.838C10.364 11.681 10.577 11.575 10.823 11.518V11.485C10.634 11.4633 10.4572 11.3808 10.319 11.25C10.2516 11.1932 10.1973 11.1225 10.1597 11.0428C10.1221 10.963 10.1021 10.8762 10.101 10.788V10.007C10.101 9.61501 10.244 9.32701 10.529 9.14101C10.82 8.95701 11.31 8.86401 11.999 8.86401C12.688 8.86401 13.175 8.95701 13.461 9.14101C13.752 9.32601 13.898 9.61501 13.898 10.007V10.787C13.897 10.8754 13.8769 10.9625 13.8391 11.0424C13.8013 11.1223 13.7467 11.1932 13.679 11.25C13.5409 11.3808 13.364 11.4633 13.175 11.485V11.519C13.422 11.575 13.635 11.681 13.814 11.838C13.993 11.995 14.082 12.163 14.082 12.342V13.282C14.082 13.736 13.912 14.05 13.57 14.223C13.228 14.397 12.705 14.483 12 14.483V14.484ZM12 11.191C12.246 11.191 12.416 11.157 12.512 11.091C12.612 11.017 12.662 10.903 12.662 10.746V10.116C12.662 9.95301 12.612 9.83901 12.512 9.77101C12.416 9.69901 12.246 9.66201 11.999 9.66201C11.753 9.66201 11.579 9.69901 11.479 9.77201C11.383 9.83901 11.336 9.95301 11.336 10.116V10.746C11.3321 10.8092 11.343 10.8724 11.3676 10.9307C11.3922 10.989 11.43 11.0408 11.478 11.082C11.568 11.155 11.742 11.192 11.999 11.192L12 11.191ZM12 13.686C12.24 13.686 12.414 13.672 12.52 13.644C12.632 13.616 12.705 13.568 12.738 13.501C12.778 13.434 12.798 13.327 12.798 13.181V12.443C12.798 12.28 12.75 12.16 12.654 12.081C12.559 12.009 12.344 11.972 12.008 11.972C11.688 11.972 11.473 12.009 11.361 12.082C11.254 12.149 11.201 12.269 11.201 12.442V13.182C11.201 13.327 11.218 13.434 11.251 13.502C11.291 13.568 11.364 13.616 11.47 13.644C11.582 13.672 11.758 13.686 12 13.686Z" fill="#FF6309"/>
</g>
<defs>
<clipPath id="clip0_209_5303">
<rect width="24" height="24" fill="white"/>
</clipPath>
</defs>
</svg>
