<svg width="24" height="24" viewBox="0 0 24 24" fill="none" xmlns="http://www.w3.org/2000/svg">
<g clip-path="url(#clip0_209_5298)">
<path d="M12 24C18.6274 24 24 18.6274 24 12C24 5.37258 18.6274 0 12 0C5.37258 0 0 5.37258 0 12C0 18.6274 5.37258 24 12 24Z" fill="#1F1F22"/>
<path fill-rule="evenodd" clip-rule="evenodd" d="M16.686 17.467C17.8031 16.5096 18.6 15.233 18.9696 13.8091C19.3392 12.3851 19.2637 10.8821 18.7533 9.50229C18.243 8.1225 17.3221 6.93217 16.1148 6.0915C14.9075 5.25084 13.4717 4.80018 12.0005 4.80018C10.5294 4.80018 9.09352 5.25084 7.88621 6.0915C6.67891 6.93217 5.7581 8.1225 5.24771 9.50229C4.73732 10.8821 4.66185 12.3851 5.03146 13.8091C5.40107 15.233 6.19801 16.5096 7.31503 17.467L5.75203 19.289C4.69961 18.3886 3.85494 17.2706 3.27626 16.0123C2.69757 14.7539 2.39863 13.385 2.40003 12C2.40003 9.45392 3.41145 7.01212 5.2118 5.21177C7.01215 3.41142 9.45395 2.39999 12 2.39999C13.2607 2.39999 14.5091 2.64831 15.6738 3.13075C16.8385 3.6132 17.8968 4.32033 18.7883 5.21177C19.6797 6.10321 20.3868 7.16151 20.8693 8.32623C21.3517 9.49096 21.6 10.7393 21.6 12C21.6016 13.3852 21.3027 14.7543 20.724 16.0128C20.1453 17.2714 19.3006 18.3895 18.248 19.29L16.686 17.467Z" fill="#CDCDCD" fill-opacity="0.1"/>
<path fill-rule="evenodd" clip-rule="evenodd" d="M18.517 15.066C19.0882 13.852 19.3088 12.5026 19.154 11.17C18.9993 9.83732 18.4752 8.57441 17.641 7.52367C16.8068 6.47294 15.6956 5.67619 14.4328 5.22328C13.1699 4.77036 11.8056 4.6793 10.4938 4.96036C9.18192 5.24142 7.97469 5.88342 7.00823 6.81396C6.04178 7.7445 5.35454 8.92656 5.02402 10.2268C4.69351 11.5271 4.73287 12.8939 5.13766 14.173C5.54245 15.4521 6.29657 16.5926 7.31497 17.466L5.75097 19.29C4.6986 18.3894 3.85405 17.2712 3.27554 16.0127C2.69702 14.7542 2.3983 13.3851 2.39997 12C2.39997 9.45392 3.4114 7.01212 5.21175 5.21177C7.01209 3.41142 9.45389 2.39999 12 2.39999C13.2607 2.39999 14.509 2.64831 15.6737 3.13075C16.8385 3.6132 17.8968 4.32033 18.7882 5.21177C19.6796 6.10321 20.3868 7.16151 20.8692 8.32623C21.3517 9.49096 21.6 10.7393 21.6 12C21.6026 13.4135 21.2918 14.81 20.69 16.089L18.517 15.066Z" fill="#FF6309"/>
<path d="M11.84 14.484C11.36 14.484 10.841 14.456 10.287 14.4V13.526C11.004 13.605 11.516 13.644 11.824 13.644C12.11 13.644 12.317 13.624 12.446 13.585C12.574 13.545 12.658 13.473 12.698 13.367C12.742 13.26 12.765 13.092 12.765 12.863V12.35H11.858C11.555 12.35 11.337 12.347 11.202 12.342C11.0488 12.3273 10.8972 12.2992 10.749 12.258C10.6034 12.2274 10.4676 12.1611 10.354 12.065C10.2505 11.9595 10.1705 11.8335 10.119 11.695C10.0538 11.506 10.0223 11.3069 10.026 11.107V10.367C10.026 10.11 10.066 9.88701 10.144 9.69601C10.222 9.50001 10.324 9.34601 10.446 9.23401C10.558 9.13901 10.704 9.06001 10.883 8.99901C11.068 8.93701 11.25 8.89801 11.429 8.88101C11.642 8.87001 11.835 8.86401 12.009 8.86401C12.272 8.86401 12.479 8.87301 12.63 8.88901C12.787 8.90101 12.952 8.93401 13.126 8.99001C13.2944 9.03943 13.449 9.12744 13.5774 9.24704C13.7059 9.36665 13.8047 9.51455 13.866 9.67901C13.9473 9.89947 13.9869 10.1331 13.983 10.368V12.905C13.983 13.47 13.812 13.876 13.47 14.123C13.134 14.363 12.591 14.483 11.84 14.483V14.484ZM12.765 11.535V10.26C12.765 10.07 12.748 9.93801 12.715 9.86501C12.686 9.79201 12.622 9.74501 12.521 9.72201C12.3462 9.69355 12.169 9.68216 11.992 9.68801C11.8229 9.68176 11.6537 9.69586 11.488 9.73001C11.4458 9.73748 11.4061 9.75526 11.3724 9.78178C11.3387 9.8083 11.3121 9.84273 11.295 9.88201C11.261 9.95401 11.245 10.08 11.245 10.26V11.091C11.245 11.226 11.261 11.324 11.295 11.385C11.328 11.441 11.395 11.48 11.496 11.503C11.6626 11.5297 11.8313 11.5408 12 11.536H12.765V11.535Z" fill="#FF6309"/>
</g>
<defs>
<clipPath id="clip0_209_5298">
<rect width="24" height="24" fill="white"/>
</clipPath>
</defs>
</svg>
