<svg xmlns="http://www.w3.org/2000/svg" viewBox="0 0 2878.44 512"><rect fill="#e2263c" width="512" height="512" rx="64" ry="64"></rect><path fill="#fff" d="M154.11,314.21h-31.2v-87.33h-37.41v-29.12h199.86c11.49,0,20.8,9.31,20.8,20.8v31.92c0,11.49-9.31,20.8-20.8,20.8h-3.03l23.87,42.93h-34.24l-25.06-44.16h-17.56v-26.43c15.35-.38,30.42.38,45.05-.41v-16.1h-51.66v87.13h-31.17v-87.4c-12.92.24-25.2-.27-37.44.34v87.02ZM343.33,242.12l49.1,72.09h34.07v-116.45h-31.2v67.01l-43.65-67.01h-39.52v116.45h31.2v-72.09Z"></path><path fill="#fff" d="M751.2,381.09v-196.36h-69.09v-53.82h201.82v53.82h-69.45v196.36h-63.27Z"></path><path fill="#fff" d="M1055.92,381.09l-32.73-87.64h-44v87.64h-63.27v-250.18h120c23.03,0,40.42,3.21,52.18,9.64,11.76,6.43,19.51,15.27,23.27,26.55,3.76,11.27,5.64,26.36,5.64,45.27,0,17.45-2.24,32.61-6.73,45.45-4.49,12.85-13.4,22.18-26.73,28l38.55,95.27h-66.18ZM1039.74,241.09c5.45-1.45,9.03-4.18,10.73-8.18,1.69-4,2.55-10.73,2.55-20.18s-.73-16.55-2.18-20.55c-1.45-4-4.91-6.73-10.36-8.18-5.45-1.45-14.73-2.18-27.82-2.18h-33.45v61.45h32.73c13.09,0,22.36-.73,27.82-2.18Z"></path><path fill="#fff" d="M1320.65,381.09l-14.91-47.27h-89.09l-14.18,47.27h-63.27l80-250.18h85.82l80,250.18h-64.36ZM1261.74,186.91h-1.82l-28.73,95.64h59.64l-29.09-95.64Z"></path><path fill="#fff" d="M1540.82,382.18c-12.49,1.21-24.18,1.82-35.09,1.82-31.52,0-54.79-3.87-69.82-11.64-15.03-7.76-24.97-20.36-29.82-37.82-4.85-17.45-7.27-43.64-7.27-78.55s2.48-60.36,7.45-77.82c4.97-17.45,14.97-30.18,30-38.18,15.03-8,38.18-12,69.45-12,10.91,0,22.42.67,34.55,2,12.12,1.33,22.18,2.97,30.18,4.91v48c-24.73-2.42-41.09-3.64-49.09-3.64-19.88,0-33.58,1.52-41.09,4.55-7.52,3.03-12.31,9.34-14.36,18.91-2.06,9.58-3.09,27.34-3.09,53.27s1.03,43.7,3.09,53.27c2.06,9.58,6.85,15.88,14.36,18.91,7.51,3.03,21.21,4.55,41.09,4.55,17.94,0,34.78-1.21,50.55-3.64v48.73c-8.24,1.7-18.61,3.15-31.09,4.36Z"></path><path fill="#fff" d="M1763.91,381.09l-70.91-101.82h-15.64v101.82h-63.27v-250.18h63.27v97.45h15.64l71.64-97.45h69.46l-90.55,118.55,91.64,131.64h-71.27Z"></path><path fill="#fff" d="M1863.54,381.09v-250.18h177.45v51.27h-114.18v46.91h96.73v51.27h-96.73v49.45h114.18v51.27h-177.45Z"></path><path fill="#fff" d="M2227.18,381.09l-32.73-87.64h-44v87.64h-63.27v-250.18h120c23.03,0,40.42,3.21,52.18,9.64,11.76,6.43,19.51,15.27,23.27,26.55,3.76,11.27,5.64,26.36,5.64,45.27,0,17.45-2.24,32.61-6.73,45.45-4.49,12.85-13.4,22.18-26.73,28l38.55,95.27h-66.18ZM2211,241.09c5.45-1.45,9.03-4.18,10.73-8.18,1.69-4,2.55-10.73,2.55-20.18s-.73-16.55-2.18-20.55c-1.45-4-4.91-6.73-10.36-8.18-5.45-1.45-14.73-2.18-27.82-2.18h-33.45v61.45h32.73c13.09,0,22.36-.73,27.82-2.18Z"></path><path fill="#fff" d="M2330.81,381.09v-53.82h62.18v53.82h-62.18Z"></path><path fill="#fff" d="M2541.72,282.91v-48h93.45v140.73c-12.61,2.43-27.09,4.43-43.45,6-16.36,1.57-30.73,2.36-43.09,2.36-32.24,0-56.12-3.33-71.64-10-15.52-6.67-26.18-18.78-32-36.36-5.82-17.57-8.73-44.78-8.73-81.64,0-34.42,2.97-60.55,8.91-78.36,5.94-17.82,16.78-30.55,32.55-38.18,15.76-7.64,39.27-11.45,70.55-11.45,17.94,0,35.76,1.09,53.45,3.27,17.69,2.18,28.48,3.88,32.36,5.09v48c-27.15-3.39-48-5.09-62.54-5.09-24,0-40.43,1.27-49.27,3.82-8.85,2.55-14.73,8.79-17.64,18.73-2.91,9.94-4.36,28-4.36,54.18,0,23.76,1.09,40.79,3.27,51.09,2.18,10.31,6.73,17.4,13.64,21.27,6.91,3.88,18.24,5.82,34,5.82,8.73,0,17.09-.36,25.09-1.09v-50.18h-34.55Z"></path><path fill="#fff" d="M2784.99,282.91v-48h93.45v140.73c-12.61,2.43-27.09,4.43-43.45,6-16.36,1.57-30.73,2.36-43.09,2.36-32.24,0-56.12-3.33-71.64-10-15.52-6.67-26.18-18.78-32-36.36-5.82-17.57-8.73-44.78-8.73-81.64,0-34.42,2.97-60.55,8.91-78.36,5.94-17.82,16.78-30.55,32.55-38.18,15.76-7.64,39.27-11.45,70.55-11.45,17.94,0,35.76,1.09,53.45,3.27,17.69,2.18,28.48,3.88,32.36,5.09v48c-27.15-3.39-48-5.09-62.54-5.09-24,0-40.43,1.27-49.27,3.82-8.85,2.55-14.73,8.79-17.64,18.73-2.91,9.94-4.36,28-4.36,54.18,0,23.76,1.09,40.79,3.27,51.09,2.18,10.31,6.73,17.4,13.64,21.27,6.91,3.88,18.24,5.82,34,5.82,8.73,0,17.09-.36,25.09-1.09v-50.18h-34.55Z"></path></svg>